<svg xmlns="http://www.w3.org/2000/svg" version="1.1" xmlns:xlink="http://www.w3.org/1999/xlink" xmlns:svgjs="http://svgjs.dev/svgjs" width="2000" height="1500" viewBox="0 0 2000 1500"><rect width="2000" height="1500" fill="#ffffff"></rect><g transform="matrix(0.75,0,0,0.75,249.090909090909,282.7536437246963)"><svg viewBox="0 0 396 247" data-background-color="#ffffff" preserveAspectRatio="xMidYMid meet" height="1247" width="2000" xmlns="http://www.w3.org/2000/svg" xmlns:xlink="http://www.w3.org/1999/xlink"><g id="tight-bounds" transform="matrix(1,0,0,1,0.2400000000000091,-0.09999999999999432)"><svg viewBox="0 0 395.52 247.2" height="247.2" width="395.52"><g><svg></svg></g><g><svg viewBox="0 0 395.52 247.2" height="247.2" width="395.52"><g transform="matrix(1,0,0,1,75.54432000000001,97.03779812744385)"><svg viewBox="0 0 244.43135999999996 53.124403745112296" height="53.124403745112296" width="244.43135999999996"><g><svg viewBox="0 0 244.43135999999996 53.124403745112296" height="53.124403745112296" width="244.43135999999996"><g><svg viewBox="0 0 244.43135999999996 53.124403745112296" height="53.124403745112296" width="244.43135999999996"><g><svg viewBox="0 0 244.43135999999996 53.124403745112296" height="53.124403745112296" width="244.43135999999996"><g id="textblocktransform"><svg viewBox="0 0 244.43135999999996 53.124403745112296" height="53.124403745112296" width="244.43135999999996" id="textblock"><g><svg viewBox="0 0 244.43135999999996 28.65276490559842" height="28.65276490559842" width="244.43135999999996"><g transform="matrix(1,0,0,1,0,0)"><svg width="244.43135999999996" viewBox="2.799999952316284 -35.5 304.5400085449219 35.70000076293945" height="28.65276490559842" data-palette-color="#0063db"><path d="M32.8-0.85L32.8-0.85 26.95-7.85Q26.05-8.95 25.1-8.95L25.1-8.95Q23.95-8.95 23.95-7.05L23.95-7.05 23.95-2.3Q23.95-1.4 23.15-0.85 22.35-0.3 21.25-0.2L21.25-0.2Q18.1 0 14.13 0 10.15 0 6.6-0.2L6.6-0.2Q5.1-0.3 4.2-1.23 3.3-2.15 3.2-3.3L3.2-3.3Q2.8-7.7 2.8-16.98 2.8-26.25 3.03-29.55 3.25-32.85 3.93-33.93 4.6-35 6.7-35L6.7-35 20.1-35Q21.75-35 22.85-33.7 23.95-32.4 23.95-30.5L23.95-30.5 24-24.9Q24-23.85 24.55-23.85L24.55-23.85Q24.9-23.85 25.95-24.7L25.95-24.7 35.75-33.85Q36.95-35 38.63-35.02 40.3-35.05 42.2-35.05L42.2-35.05 46.05-35Q46.85-35 47.15-34.25 47.45-33.5 46.85-32.9L46.85-32.9Q41.1-27.15 35.35-22.25L35.35-22.25Q34.85-21.8 34.85-21.33 34.85-20.85 35.4-20.3L35.4-20.3 38.1-17.6Q40.15-15.55 41.48-14.25 42.8-12.95 44.6-11.1L44.6-11.1Q48.2-7.4 50.1-5.1L50.1-5.1Q51.1-3.9 51.1-2.65L51.1-2.65Q51.1-2.2 50.95-1.7L50.95-1.7Q50.4 0 48.55 0L48.55 0 35.1 0Q33.55 0 32.8-0.85ZM87.4-32.65L87.4-32.65 103.75-5Q104.75-3.35 104.75-2.23 104.75-1.1 103.85-0.55 102.95 0 101.75 0L101.75 0 85.65 0Q83.2 0 82.5-0.9L82.5-0.9Q82.3-1.2 81.95-1.95L81.95-1.95 80.5-5.05Q79.85-6.5 77.45-6.7L77.45-6.7 68-6.7Q66.95-6.7 66.4-6.5 65.85-6.3 65.5-5.6L65.5-5.6 63.55-1.55Q63.05-0.65 62.45-0.33 61.85 0 60.7 0L60.7 0 56.2 0Q54.25 0 54.1-1.4L54.1-1.4Q54.05-1.6 54.05-1.8L54.05-1.8Q54.05-2.95 54.8-4L54.8-4 70.45-31.6Q72.7-35.5 77.75-35.5L77.75-35.5 81.75-35.5Q85.75-35.5 87.4-32.65ZM71.2-19.85L71.2-19.85 68.9-15.3Q68.7-14.85 68.7-14.5L68.7-14.5Q68.7-13.2 69.95-13.2L69.95-13.2 74.5-13.2Q75.55-13.2 75.95-13.73 76.35-14.25 76.35-14.65 76.35-15.05 76.2-15.45L76.2-15.45 74.3-19.75Q73.7-21.05 72.75-21.05 71.8-21.05 71.2-19.85ZM130.09-24.55L130.09-24.55 130.19-15.3Q130.19-14.35 131.25-14.35L131.25-14.35Q134.34-14.35 136.12-16.07 137.9-17.8 137.9-20.15 137.9-22.5 136.22-24.2 134.55-25.9 131.3-25.9L131.3-25.9Q130.09-25.9 130.09-24.55ZM143.19-9.6L143.19-9.6Q144.15-8.6 149.94-2.05L149.94-2.05Q150.3-1.6 150.3-1.25L150.3-1.25Q150.3 0.05 149.15 0.05L149.15 0.05Q146.5 0.1 143.82 0.1 141.15 0.1 138.5 0.05L138.5 0.05Q137.05 0.05 135.84-1.1L135.84-1.1 131.55-7.6Q131.3-7.9 130.94-8L130.94-8Q130.15-8.3 130.15-7.35L130.15-7.35 130.15-2.25Q130.15-0.1 127.32 0.05 124.5 0.2 121.15 0.2 117.8 0.2 113.05-0.05L113.05-0.05Q111.59-0.15 110.72-1.05 109.84-1.95 109.7-3.1L109.7-3.1Q109.3-7.5 109.3-16.93 109.3-26.35 109.59-30.65 109.9-34.95 113.95-35L113.95-35Q117.75-35.05 124.3-35.05 130.84-35.05 135.15-34.95L135.15-34.95Q141.34-34.85 145.3-30.35 149.25-25.85 149.25-20.2L149.25-20.2Q149.25-16.9 147.72-14.1 146.19-11.3 143.19-9.6ZM183.69-3.05L183.69-3.05Q183.64-1.95 182.74-1.03 181.84-0.1 180.34 0L180.34 0Q177.49 0.2 173.49 0.2 169.49 0.2 166.14 0L166.14 0Q164.64-0.1 163.74-1.03 162.84-1.95 162.79-3.05L162.79-3.05Q162.64-10.65 162.64-16.03 162.64-21.4 162.69-23.9L162.69-23.9Q162.69-25.8 160.99-25.8L160.99-25.8 156.49-25.8Q155.44-25.8 154.79-26.3 154.14-26.8 154.07-28.05 153.99-29.3 153.99-30.65 153.99-32 154.07-32.98 154.14-33.95 154.87-34.48 155.59-35 156.44-35L156.44-35Q162.94-35.1 174.04-35.1 185.14-35.1 189.94-35L189.94-35Q190.79-34.95 191.52-34.45 192.24-33.95 192.32-32.98 192.39-32 192.39-30.7 192.39-29.4 192.34-28.2L192.34-28.2Q192.19-25.95 189.89-25.95L189.89-25.95 185.39-25.95Q183.69-25.95 183.69-24.2L183.69-24.2Q183.84-17.9 183.84-12.8 183.84-7.7 183.69-3.05ZM201.04-35L201.04-35 214.44-35Q216.54-35 217.22-33.95 217.89-32.9 218.12-29.63 218.34-26.35 218.34-16.93 218.34-7.5 217.94-3.1L217.94-3.1Q217.79-1.95 216.92-1.05 216.04-0.15 214.59-0.05L214.59-0.05Q211.74 0.15 207.99 0.15 204.24 0.15 200.89-0.05L200.89-0.05Q199.44-0.15 198.57-1.05 197.69-1.95 197.54-3.1L197.54-3.1Q197.14-7.5 197.14-16.93 197.14-26.35 197.37-29.63 197.59-32.9 198.27-33.95 198.94-35 201.04-35ZM224.19-3.5L224.19-3.5 224.14-30.65Q224.54-34.8 227.69-35L227.69-35Q229.94-35.05 257.64-35.05L257.64-35.05Q260.64-35.05 260.64-30.6L260.64-30.6Q260.64-28.35 257.99-28.35L257.99-28.35 247.09-28.35Q246.04-28.35 245.41-27.65 244.79-26.95 244.79-25.8L244.79-25.8 244.79-22.25Q244.79-20.7 246.09-20.7L246.09-20.7 254.39-20.7Q255.59-20.7 256.19-20.15 256.79-19.6 256.79-17.63 256.79-15.65 256.21-15.1 255.64-14.55 254.34-14.55L254.34-14.55 246.89-14.55Q245.64-14.55 245.16-13.95 244.69-13.35 244.69-12.05L244.69-12.05 244.69-3.45Q244.69-1.7 243.94-0.85 243.19 0 241.99 0L241.99 0 227.79 0Q226.39 0 225.39-0.93 224.39-1.85 224.19-3.5ZM299.84-35L306.34-35Q307.34-35 307.34-34L307.34-34Q307.34-33.35 306.79-32.6L306.79-32.6 295.59-14.85Q295.59-10.8 295.34-3.05L295.34-3.05Q295.29-1.95 294.39-1.03 293.49-0.1 291.99 0L291.99 0Q289.14 0.2 285.14 0.2 281.14 0.2 277.79 0L277.79 0Q276.29-0.1 275.39-1.03 274.49-1.95 274.44-3.05L274.44-3.05Q274.34-8.1 274.34-13.55L274.34-13.55 264.24-30.5Q263.49-31.65 263.49-32.4L263.49-32.4Q263.49-34.9 265.94-34.9L265.94-34.9 283.04-35Q284.49-35 285.21-34.55 285.94-34.1 286.94-32.7L286.94-32.7 289.99-26.15Q290.79-25.05 291.31-25.05 291.84-25.05 292.59-25.95L292.59-25.95 297.69-33.95Q298.54-35 299.84-35L299.84-35Z" opacity="1" transform="matrix(1,0,0,1,0,0)" fill="#0063db" class="wordmark-text-0" data-fill-palette-color="primary" id="text-0"></path></svg></g></svg></g><g transform="matrix(1,0,0,1,0,35.41699503345247)"><svg viewBox="0 0 244.43135999999996 17.707408711659824" height="17.707408711659824" width="244.43135999999996"><g transform="matrix(1,0,0,1,0,0)"><svg width="244.43135999999996" viewBox="4.199999809265137 -37.20000076293945 713.6599731445312 51.70000076293945" height="17.707408711659824" data-palette-color="#0063db"><path d="M4.2-36.4L6.3-36.4 6.3-18.9Q7.45-22.05 9.7-23.73 11.95-25.4 14.9-25.4L14.9-25.4Q18.3-25.4 20.35-23.38 22.4-21.35 22.4-17.95L22.4-17.95Q22.4-13.1 17.45-10.85L17.45-10.85 22.05-2.95Q22.8-1.55 23.9-1.55L23.9-1.55Q24.75-1.55 25.3-2.2L25.3-2.2 26.7-0.95Q26-0.25 25.38 0.08 24.75 0.4 23.85 0.4L23.85 0.4Q22.7 0.4 21.88-0.05 21.05-0.5 20.4-1.6L20.4-1.6 15.4-10.3 6.3-10.3 6.3 0 4.2 0 4.2-36.4ZM12.7-12.25Q15.3-12.25 16.85-12.95L16.85-12.95Q18.55-13.65 19.53-15.03 20.5-16.4 20.5-18.15L20.5-18.15Q20.5-20.45 18.93-21.98 17.35-23.5 14.8-23.5L14.8-23.5Q12.05-23.5 10-21.68 7.95-19.85 7-16.55L7-16.55Q6.35-14.2 6.4-12.25L6.4-12.25 12.7-12.25ZM79.13-2.4L80.73-1.4Q80.23-0.55 79.36-0.1 78.48 0.35 77.53 0.35L77.53 0.35Q75.73 0.35 74.68-0.68 73.63-1.7 73.48-3.7L73.48-3.7Q72.43-1.8 70.28-0.68 68.13 0.45 65.43 0.45L65.43 0.45Q61.98 0.45 59.61-1.28 57.23-3 56.06-5.88 54.88-8.75 54.88-12.25L54.88-12.25Q54.88-16.15 56.33-19.07 57.78-22 60.51-23.63 63.23-25.25 66.98-25.25L66.98-25.25Q68.13-25.25 69.91-25.13 71.68-25 73.03-24.8L73.03-24.8 75.53-24.8 75.53-3.9Q75.53-2.7 76.08-2.13 76.63-1.55 77.53-1.55L77.53-1.55Q77.98-1.55 78.46-1.8 78.93-2.05 79.13-2.4L79.13-2.4ZM73.43-9.3L73.43-23Q72.63-22.95 69.83-23.15L69.83-23.15 66.78-23.25Q62.03-23.25 59.51-20.15 56.98-17.05 56.98-12.35L56.98-12.35Q56.98-9.55 57.96-7.08 58.93-4.6 60.86-3.08 62.78-1.55 65.48-1.55L65.48-1.55Q67.93-1.55 69.83-2.75 71.73-3.95 72.68-5.85L72.68-5.85Q73.43-7.35 73.43-9.3L73.43-9.3ZM120.51-25.25Q121.21-25.25 123.11-24.9L123.11-24.9 123.11-23Q121.66-23.25 120.61-23.25L120.61-23.25Q117.76-23.25 116.01-21.85L116.01-21.85Q115.26-21.2 114.41-20.18 113.56-19.15 112.96-18L112.96-18 112.96-0.05 110.86-0.05 110.86-18.1Q110.86-20.3 110.41-21.58 109.96-22.85 109.01-24.05L109.01-24.05 110.41-25.4Q111.51-24.35 112.19-23.03 112.86-21.7 112.96-20.25L112.96-20.25Q113.61-21.55 114.51-22.6 115.41-23.65 116.31-24.2L116.31-24.2Q118.01-25.25 120.51-25.25L120.51-25.25ZM159.64 0.45Q153.34 0.45 153.34-7L153.34-7 153.34-31.15 155.44-31.15 155.44-25 163.49-25 163.49-23 155.44-23 155.44-7Q155.44-4.35 156.42-2.9 157.39-1.45 159.64-1.45L159.64-1.45Q162.59-1.45 164.34-4.3L164.34-4.3 165.84-3.2Q164.69-1.35 163.24-0.45 161.79 0.45 159.64 0.45L159.64 0.45ZM198.52-3.8Q198.52-2.6 199.07-2 199.62-1.4 200.52-1.4L200.52-1.4Q201.37-1.4 202.02-2.2L202.02-2.2 203.57-1.1Q202.42 0.5 200.47 0.5L200.47 0.5Q198.67 0.5 197.55-0.68 196.42-1.85 196.42-3.85L196.42-3.85 196.42-25 198.52-25 198.52-3.8ZM197.47-28.75Q196.67-28.75 196.17-29.25 195.67-29.75 195.67-30.55L195.67-30.55Q195.67-31.35 196.17-31.85 196.67-32.35 197.47-32.35L197.47-32.35Q198.27-32.35 198.8-31.85 199.32-31.35 199.32-30.55L199.32-30.55Q199.32-29.75 198.8-29.25 198.27-28.75 197.47-28.75L197.47-28.75ZM234.05-25.3Q234.05-31.55 235.9-34.38 237.75-37.2 241.85-37.2L241.85-37.2Q245.2-37.2 247-35.3 248.8-33.4 248.8-29.9L248.8-29.9Q248.8-25.65 246.18-23.35 243.55-21.05 238.95-21.2L238.95-21.2 236.15-21.3 236.15-12.2 243.7-12.2 243.7-10.3 236.15-10.3 236.15 13.2 234.05 13.2 234.05-25.3ZM238.95-23.1Q242.5-23.1 244.6-24.95 246.7-26.8 246.7-29.95L246.7-29.95Q246.7-32.4 245.35-33.85 244-35.3 241.75-35.3L241.75-35.3Q236.15-35.3 236.15-25.45L236.15-25.45 236.15-23.1 238.95-23.1ZM289.93 14.5Q286.73 14.5 284.68 12.35 282.63 10.2 282.63 6.9L282.63 6.9Q282.63 4.75 283.71 2.95 284.78 1.15 286.63 0.3L286.63 0.3Q282.48 0.3 280.36-1.48 278.23-3.25 278.23-6.75L278.23-6.75 278.23-18.15Q278.23-20.35 277.78-21.63 277.33-22.9 276.38-24.1L276.38-24.1 277.78-25.45Q278.93-24.3 279.63-22.83 280.33-21.35 280.33-19.8L280.33-19.8 280.33-7.8Q280.33-4.55 281.73-3.08 283.13-1.6 286.28-1.6L286.28-1.6Q288.63-1.6 290.53-2.6 292.43-3.6 294.28-5.9L294.28-5.9Q294.68-6.65 294.86-7.2 295.03-7.75 295.03-8.4L295.03-8.4 295.08-25 297.18-25 297.13-6.7 297.13 6.25Q297.13 10.05 295.21 12.28 293.28 14.5 289.93 14.5L289.93 14.5ZM289.88 12.5Q292.23 12.5 293.63 10.85 295.03 9.2 295.03 6.45L295.03 6.45 295.03-3.95Q293.63-2.15 291.63-0.8L291.63-0.8Q289.88 0.2 288.83 0.75L288.83 0.75Q286.68 1.85 285.71 3.3 284.73 4.75 284.73 6.8L284.73 6.8Q284.73 9.3 286.16 10.9 287.58 12.5 289.88 12.5L289.88 12.5ZM376 0.45Q369.7 0.45 369.7-7L369.7-7 369.7-31.15 371.8-31.15 371.8-25 379.85-25 379.85-23 371.8-23 371.8-7Q371.8-4.35 372.77-2.9 373.75-1.45 376-1.45L376-1.45Q378.95-1.45 380.7-4.3L380.7-4.3 382.2-3.2Q381.05-1.35 379.6-0.45 378.15 0.45 376 0.45L376 0.45ZM431.98-3.8Q431.98-2.6 432.53-2 433.08-1.4 433.98-1.4L433.98-1.4Q434.83-1.4 435.48-2.2L435.48-2.2 437.03-1.1Q435.88 0.5 433.93 0.5L433.93 0.5Q432.13 0.5 431-0.68 429.88-1.85 429.88-3.85L429.88-3.85 429.88-17.4Q429.88-20.45 428.25-21.98 426.63-23.5 423.63-23.5L423.63-23.5Q420.93-23.5 419-22.15 417.08-20.8 415.08-18.05L415.08-18.05 415.08-0.2 412.98-0.2 412.98-36.5 415.08-36.5 415.08-20.05Q416.73-22.8 418.9-24.1 421.08-25.4 424.03-25.4L424.03-25.4Q428.08-25.4 430.03-23.45 431.98-21.5 431.98-17.55L431.98-17.55 431.98-3.8ZM475.96 0.45Q470.41 0.45 467.56-2.83 464.71-6.1 464.71-11.45L464.71-11.45Q464.71-14.9 465.91-18.05 467.11-21.2 469.61-23.23 472.11-25.25 475.76-25.25L475.76-25.25Q479.56-25.25 482.11-23.2 484.66-21.15 484.66-17.75L484.66-17.75Q484.66-14.15 481.68-12.2 478.71-10.25 473.61-10.25L473.61-10.25 466.96-10.25Q467.36-6.05 469.66-3.75 471.96-1.45 475.96-1.45L475.96-1.45Q478.21-1.45 480.08-2.1 481.96-2.75 483.96-4L483.96-4 485.01-2.55Q480.76 0.45 475.96 0.45L475.96 0.45ZM473.61-12.15Q477.61-12.15 480.08-13.5 482.56-14.85 482.56-17.8L482.56-17.8Q482.56-20.5 480.56-21.93 478.56-23.35 475.91-23.35L475.91-23.35Q472.86-23.35 470.78-21.53 468.71-19.7 467.73-17.07 466.76-14.45 466.86-12.15L466.86-12.15 473.61-12.15ZM556.22-36.4L558.32-36.4 558.32-18.9Q559.47-22.05 561.72-23.73 563.97-25.4 566.92-25.4L566.92-25.4Q570.32-25.4 572.37-23.38 574.42-21.35 574.42-17.95L574.42-17.95Q574.42-13.1 569.47-10.85L569.47-10.85 574.07-2.95Q574.82-1.55 575.92-1.55L575.92-1.55Q576.77-1.55 577.32-2.2L577.32-2.2 578.72-0.95Q578.02-0.25 577.39 0.08 576.77 0.4 575.87 0.4L575.87 0.4Q574.72 0.4 573.89-0.05 573.07-0.5 572.42-1.6L572.42-1.6 567.42-10.3 558.32-10.3 558.32 0 556.22 0 556.22-36.4ZM564.72-12.25Q567.32-12.25 568.87-12.95L568.87-12.95Q570.57-13.65 571.54-15.03 572.52-16.4 572.52-18.15L572.52-18.15Q572.52-20.45 570.94-21.98 569.37-23.5 566.82-23.5L566.82-23.5Q564.07-23.5 562.02-21.68 559.97-19.85 559.02-16.55L559.02-16.55Q558.37-14.2 558.42-12.25L558.42-12.25 564.72-12.25ZM631.15-2.4L632.75-1.4Q632.25-0.55 631.38-0.1 630.5 0.35 629.55 0.35L629.55 0.35Q627.75 0.35 626.7-0.68 625.65-1.7 625.5-3.7L625.5-3.7Q624.45-1.8 622.3-0.68 620.15 0.45 617.45 0.45L617.45 0.45Q614 0.45 611.63-1.28 609.25-3 608.08-5.88 606.9-8.75 606.9-12.25L606.9-12.25Q606.9-16.15 608.35-19.07 609.8-22 612.53-23.63 615.25-25.25 619-25.25L619-25.25Q620.15-25.25 621.93-25.13 623.7-25 625.05-24.8L625.05-24.8 627.55-24.8 627.55-3.9Q627.55-2.7 628.1-2.13 628.65-1.55 629.55-1.55L629.55-1.55Q630-1.55 630.48-1.8 630.95-2.05 631.15-2.4L631.15-2.4ZM625.45-9.3L625.45-23Q624.65-22.95 621.85-23.15L621.85-23.15 618.8-23.25Q614.05-23.25 611.53-20.15 609-17.05 609-12.35L609-12.35Q609-9.55 609.98-7.08 610.95-4.6 612.88-3.08 614.8-1.55 617.5-1.55L617.5-1.55Q619.95-1.55 621.85-2.75 623.75-3.95 624.7-5.85L624.7-5.85Q625.45-7.35 625.45-9.3L625.45-9.3ZM672.53-25.25Q673.23-25.25 675.13-24.9L675.13-24.9 675.13-23Q673.68-23.25 672.63-23.25L672.63-23.25Q669.78-23.25 668.03-21.85L668.03-21.85Q667.28-21.2 666.43-20.18 665.58-19.15 664.98-18L664.98-18 664.98-0.05 662.88-0.05 662.88-18.1Q662.88-20.3 662.43-21.58 661.98-22.85 661.03-24.05L661.03-24.05 662.43-25.4Q663.53-24.35 664.21-23.03 664.88-21.7 664.98-20.25L664.98-20.25Q665.63-21.55 666.53-22.6 667.43-23.65 668.33-24.2L668.33-24.2Q670.03-25.25 672.53-25.25L672.53-25.25ZM711.66 0.45Q705.36 0.45 705.36-7L705.36-7 705.36-31.15 707.46-31.15 707.46-25 715.51-25 715.51-23 707.46-23 707.46-7Q707.46-4.35 708.44-2.9 709.41-1.45 711.66-1.45L711.66-1.45Q714.61-1.45 716.36-4.3L716.36-4.3 717.86-3.2Q716.71-1.35 715.26-0.45 713.81 0.45 711.66 0.45L711.66 0.45Z" opacity="1" transform="matrix(1,0,0,1,0,0)" fill="#0063db" class="slogan-text-1" data-fill-palette-color="secondary" id="text-1"></path></svg></g></svg></g></svg></g></svg></g></svg></g></svg></g></svg></g><path d="M199.523 91.038L199.523 26.661 393.401 26.661 393.401 220.539 199.523 220.539 199.523 156.162 202.107 156.162 202.107 217.955 390.817 217.955 390.817 29.245 202.107 29.245 202.107 91.038Z" fill="#0063db" stroke="transparent" data-fill-palette-color="primary"></path></svg></g><defs></defs></svg><rect width="395.52" height="247.2" fill="none" stroke="none" visibility="hidden"></rect></g></svg></g></svg>